<?xml version="1.0" encoding="UTF-8" standalone="no"?>
<!-- Created with Inkscape (http://www.inkscape.org/) -->

<svg
   xmlns:dc="http://purl.org/dc/elements/1.1/"
   xmlns:cc="http://creativecommons.org/ns#"
   xmlns:rdf="http://www.w3.org/1999/02/22-rdf-syntax-ns#"
   xmlns:svg="http://www.w3.org/2000/svg"
   xmlns="http://www.w3.org/2000/svg"
   version="1.1"
   width="1460.595"
   height="120.35838"
   id="svg3039">
  <metadata
     id="metadata3045">
    <rdf:RDF>
      <cc:Work
         rdf:about="">
        <dc:format>image/svg+xml</dc:format>
        <dc:type
           rdf:resource="http://purl.org/dc/dcmitype/StillImage" />
        <dc:title></dc:title>
      </cc:Work>
    </rdf:RDF>
  </metadata>
  <defs
     id="defs3043" />
  <rect
     width="1393.9188"
     height="79.822701"
     rx="157.2"
     x="-19.708332"
     y="137.71602"
     id="rect3051"
     style="fill:none" />
  <path
     d="M 61.305752,142.48156 1421.8658,138.90741 c 43.5615,-0.11444 -714.40008,122.84268 -1.1914,0 32.5224,-5.60165 -36.261,122.66882 -79.8227,122.71251 L 153.04229,262.8113 C 109.48057,262.855 -26.333209,142.81373 -13.751414,144.86433 697.5046,260.78595 17.744152,142.59599 61.305752,142.48156 z"
     id="rect3057"
     style="fill:none" />
  <path
     d="M 62.497136,141.29018 1342.0431,138.90741 c 43.5617,-0.0811 81.0141,29.2163 81.0141,62.54764 0,33.33135 -35.0793,61.08222 -78.6313,60.16488 -8032.3593,-169.186431 -837.93979,0 -1256.909705,0 -43.561753,0 -132.943413,-125.2772 -100.076226,-119.73406 713.638781,120.35715 31.495493,-0.51457 75.057167,-0.59569 z"
     id="rect3060"
     style="fill:none" />
  <path
     d="m 77.985123,0.7069107 1364.134277,2.38277 c 43.5616,0.0761 -3.5742,24.8451103 -3.5742,57.1864113 0,32.341299 45.4355,-61.4432713 2.3828,-54.8036513 L 707.03566,118.65389 c -43.05277,6.63963 -4.918,-1.0724 -699.3421689,-116.7555993 -19.8269761,-3.30294 -3.029117,-1.31945 70.2916319,-1.19138 z"
     id="rect3063"
     style="fill:#ffffff" />
  <rect
     width="47.655331"
     height="79.822701"
     rx="14.892288"
     ry="2.3827672"
     x="1429.0142"
     y="4.2810688"
     id="rect3072"
     style="fill:#ffffff;fill-opacity:1" />
  <rect
     width="27.401823"
     height="2.3827672"
     rx="14.892288"
     ry="2.3827672"
     x="1349.1914"
     y="70.998543"
     id="rect3074"
     style="fill:#ffffff;fill-opacity:1" />
  <rect
     width="5.9569178"
     height="3.5741508"
     rx="14.892288"
     ry="2.3827672"
     x="697.50458"
     y="119.84527"
     id="rect3076"
     style="fill:#ffffff;fill-opacity:1" />
</svg>
